<?xml version="1.0" encoding="UTF-8" standalone="no"?>
<svg
   xmlns:dc="http://purl.org/dc/elements/1.1/"
   xmlns:cc="http://creativecommons.org/ns#"
   xmlns:rdf="http://www.w3.org/1999/02/22-rdf-syntax-ns#"
   xmlns:svg="http://www.w3.org/2000/svg"
   xmlns="http://www.w3.org/2000/svg"
   xmlns:sodipodi="http://sodipodi.sourceforge.net/DTD/sodipodi-0.dtd"
   xmlns:inkscape="http://www.inkscape.org/namespaces/inkscape"
   id="svg"
   version="1.1"
   width="149.35858"
   height="130.14532"
   viewBox="0 0 149.35858 130.14533"
   sodipodi:docname="image2vector (5).svg"
   inkscape:version="0.92.3 (2405546, 2018-03-11)">
  <metadata
     id="metadata10">
    <rdf:RDF>
      <cc:Work
         rdf:about="">
        <dc:format>image/svg+xml</dc:format>
        <dc:type
           rdf:resource="http://purl.org/dc/dcmitype/StillImage" />
        <dc:title></dc:title>
      </cc:Work>
    </rdf:RDF>
  </metadata>
  <defs
     id="defs8" />
  <sodipodi:namedview
     pagecolor="#ffffff"
     bordercolor="#666666"
     borderopacity="1"
     objecttolerance="10"
     gridtolerance="10"
     guidetolerance="10"
     inkscape:pageopacity="0"
     inkscape:pageshadow="2"
     inkscape:window-width="1366"
     inkscape:window-height="745"
     id="namedview6"
     showgrid="false"
     inkscape:zoom="4.86"
     inkscape:cx="64.743465"
     inkscape:cy="93.09247"
     inkscape:window-x="-8"
     inkscape:window-y="-8"
     inkscape:window-maximized="1"
     inkscape:current-layer="svg"
     fit-margin-top="0"
     fit-margin-left="0"
     fit-margin-right="0"
     fit-margin-bottom="0" />
  <g
     id="svgg"
     transform="translate(-112.00072,-66.423886)">
    <path
       id="path0"
       d="m 167.867,67.076 c -3.885,0.748 -7.226,1.52 -10.4,2.403 -0.88,0.245 -1.96,0.541 -2.4,0.658 -0.44,0.117 -1.76,0.515 -2.934,0.885 -1.173,0.369 -3.033,0.933 -4.133,1.253 -1.1,0.321 -2.24,0.673 -2.533,0.783 -0.294,0.11 -1.254,0.412 -2.134,0.669 -0.88,0.258 -1.9,0.571 -2.266,0.696 -0.925,0.314 -4.491,1.245 -7.2,1.879 -1.247,0.292 -2.636,0.644 -3.086,0.781 -0.45,0.138 -1.074,0.25 -1.387,0.25 -0.312,0 -1.264,0.185 -2.114,0.411 -4.376,1.162 -10.972,0.462 -13.347,-1.417 -1.046,-0.827 -1.133,-0.853 -1.133,-0.334 0,1.562 2.4,4.506 4.267,5.233 0.22,0.086 0.64,0.254 0.933,0.375 2.587,1.063 6.45,1.143 12,0.249 1.027,-0.166 2.287,-0.354 2.8,-0.418 0.513,-0.065 1.533,-0.286 2.267,-0.492 0.733,-0.206 1.813,-0.49 2.4,-0.632 0.586,-0.142 1.786,-0.453 2.666,-0.69 0.88,-0.238 2.08,-0.561 2.667,-0.719 0.587,-0.158 1.547,-0.44 2.133,-0.625 0.587,-0.186 1.607,-0.484 2.267,-0.662 2.335,-0.629 4.14,-1.156 4.667,-1.363 0.293,-0.115 0.833,-0.271 1.2,-0.348 0.366,-0.076 1.266,-0.317 2,-0.536 10.191,-3.034 18.24,-3.163 15.473,-0.248 -1.65,1.739 -2.608,6.788 -1.498,7.899 0.16,0.16 0.291,0.452 0.291,0.65 0,0.927 3.77,5.667 4.507,5.667 0.161,0 0.293,0.12 0.293,0.267 0,0.147 0.113,0.267 0.25,0.267 0.137,0 -0.166,-0.899 -0.674,-1.998 -2.893,-6.262 -0.414,-13.582 4.958,-14.636 1.674,-0.329 1.934,-0.701 1.54,-2.201 -0.969,-3.693 -5.749,-5.225 -12.34,-3.956 M 198.4,66.96 c -0.513,0.116 -1.285,0.296 -1.714,0.399 -2.921,0.703 -4.409,4.91 -2.018,5.708 3.093,1.032 6.132,4.139 6.132,6.269 0,0.307 0.13,0.688 0.29,0.847 0.441,0.442 0.046,4.956 -0.557,6.35 -0.127,0.294 -0.434,0.988 -0.683,1.543 -0.249,0.555 -0.369,1.094 -0.265,1.197 0.346,0.347 3.775,-3.639 4.308,-5.006 0.085,-0.22 0.294,-0.688 0.465,-1.041 0.437,-0.906 0.388,-5.327 -0.069,-6.159 -0.202,-0.367 -0.715,-1.113 -1.142,-1.657 -1.86,-2.373 2.558,-3.308 8.586,-1.817 0.514,0.127 1.894,0.444 3.067,0.703 1.173,0.259 2.247,0.569 2.387,0.688 0.139,0.119 0.483,0.216 0.764,0.216 0.532,0 2.909,0.707 3.712,1.104 0.255,0.126 0.671,0.229 0.924,0.229 0.254,0 0.946,0.168 1.537,0.373 0.592,0.205 1.616,0.515 2.276,0.689 1.88,0.495 4.082,1.128 4.667,1.34 0.641,0.233 2.939,0.819 3.866,0.985 0.367,0.066 0.907,0.223 1.2,0.349 0.294,0.125 0.894,0.288 1.334,0.362 0.44,0.073 1.4,0.269 2.133,0.435 7.657,1.73 13.985,1.718 16.933,-0.032 0.22,-0.131 0.575,-0.319 0.789,-0.419 1.22,-0.57 3.211,-3.171 3.211,-4.197 v -0.71 l -1,0.776 c -2.488,1.932 -8.55,2.408 -14.333,1.127 -1.467,-0.325 -3.267,-0.699 -4,-0.83 -1.742,-0.312 -3.791,-0.883 -4.032,-1.124 -0.104,-0.105 -0.43,-0.19 -0.722,-0.19 -0.604,0 -3.276,-0.737 -3.976,-1.096 -0.254,-0.131 -0.654,-0.238 -0.888,-0.238 -0.234,0 -1.286,-0.285 -2.337,-0.634 -1.052,-0.349 -2.632,-0.838 -3.512,-1.088 -0.88,-0.249 -1.9,-0.55 -2.266,-0.668 -0.367,-0.117 -1.387,-0.424 -2.267,-0.682 -0.88,-0.258 -1.84,-0.563 -2.133,-0.678 -0.294,-0.115 -0.834,-0.271 -1.2,-0.347 -0.367,-0.076 -2.407,-0.575 -4.534,-1.11 -5.045,-1.268 -5.456,-1.365 -7.258,-1.724 -1.911,-0.38 -6.436,-0.523 -7.675,-0.242 m -34.133,10.829 c -0.954,0.217 -1.942,0.504 -2.197,0.636 -0.254,0.133 -0.664,0.242 -0.91,0.242 -0.536,0 -3.238,0.761 -3.89,1.095 -0.254,0.131 -0.618,0.238 -0.807,0.238 -0.19,0 -1.301,0.302 -2.47,0.67 -1.17,0.369 -2.786,0.866 -3.593,1.104 -0.807,0.239 -1.707,0.528 -2,0.643 -0.293,0.115 -0.833,0.272 -1.2,0.348 -0.367,0.077 -1.327,0.335 -2.133,0.575 -2.839,0.842 -6.548,1.784 -7.867,1.996 -0.733,0.119 -1.873,0.343 -2.533,0.5 -3.274,0.776 -8.886,0.191 -10.284,-1.072 -1.13,-1.02 -1.292,-0.106 -0.228,1.288 2.021,2.649 6.646,3.819 11.845,2.996 4.819,-0.763 6.266,-1.041 8.133,-1.561 0.587,-0.164 1.547,-0.426 2.134,-0.581 1.924,-0.511 3.99,-1.11 4.533,-1.315 0.293,-0.11 1.613,-0.532 2.933,-0.938 1.32,-0.406 3.24,-1.002 4.267,-1.326 1.027,-0.323 2.587,-0.799 3.467,-1.058 0.88,-0.259 1.875,-0.576 2.212,-0.704 0.337,-0.127 0.919,-0.232 1.292,-0.232 1.535,0 2.229,-0.765 2.229,-2.457 0,-1.782 0.042,-1.766 -2.933,-1.087 m 42.019,-0.22 c -0.086,0.139 -0.036,0.571 0.112,0.959 0.148,0.389 0.269,0.984 0.269,1.323 0,0.846 0.581,1.257 2.006,1.417 0.663,0.075 1.27,0.24 1.349,0.367 0.078,0.128 0.39,0.232 0.691,0.232 0.48,0 2.167,0.475 3.82,1.077 0.294,0.107 1.254,0.405 2.134,0.662 0.88,0.258 1.84,0.559 2.133,0.669 0.293,0.111 1.613,0.522 2.933,0.915 1.32,0.393 2.76,0.837 3.2,0.988 0.774,0.265 1.897,0.551 3.888,0.99 0.524,0.116 1.075,0.285 1.224,0.377 0.485,0.3 5.111,1.095 9.102,1.565 4.181,0.492 7.552,-0.396 9.688,-2.552 1.264,-1.278 1.481,-2.705 0.253,-1.67 -1.858,1.565 -8.94,1.659 -14.421,0.19 -0.514,-0.137 -1.774,-0.448 -2.8,-0.691 -1.027,-0.243 -2.107,-0.536 -2.4,-0.651 -0.294,-0.116 -1.314,-0.417 -2.267,-0.67 -0.953,-0.253 -2.033,-0.552 -2.4,-0.665 -0.367,-0.112 -1.387,-0.416 -2.267,-0.674 -0.88,-0.257 -1.84,-0.56 -2.133,-0.671 -0.293,-0.111 -1.253,-0.404 -2.133,-0.65 -0.88,-0.246 -1.84,-0.549 -2.134,-0.673 -0.293,-0.124 -0.833,-0.289 -1.2,-0.366 -1.713,-0.36 -3.441,-0.853 -3.622,-1.034 -0.11,-0.11 -0.532,-0.2 -0.938,-0.2 -0.406,0 -1.016,-0.103 -1.356,-0.229 -1.113,-0.414 -2.572,-0.592 -2.731,-0.335 m -20.278,1.838 c -3.613,0.484 -4.507,5.57 -1.325,7.537 1.516,0.936 1.45,-0.519 1.45,32.114 0,27.773 0.039,30.574 0.427,30.723 0.862,0.33 0.899,-0.945 0.903,-31.078 l 0.004,-30.498 0.832,-0.702 c 1.753,-1.48 2.299,-2.174 2.452,-3.12 0.508,-3.128 -1.648,-5.39 -4.743,-4.976 m -19.075,4.935 c -1.223,0.517 -2.25,0.914 -4.266,1.648 -1.1,0.401 -2.378,0.897 -2.841,1.103 -0.462,0.205 -1.008,0.374 -1.213,0.374 -0.205,0 -0.487,0.099 -0.626,0.221 -0.14,0.122 -1.034,0.439 -1.987,0.704 -0.953,0.266 -2.213,0.634 -2.8,0.819 -2.112,0.666 -4.392,0.981 -6.378,0.881 -2.856,-0.144 -2.753,0.338 0.317,1.483 2.229,0.832 7.04,0.264 12.861,-1.517 1.354,-0.415 1.288,-0.391 4.97,-1.813 1.487,-0.575 2.798,-1.045 2.913,-1.045 0.857,0 1.142,-0.858 0.607,-1.825 -0.729,-1.316 -0.791,-1.357 -1.557,-1.033 m 38.287,0.766 c -0.704,1.41 -0.701,1.414 1.98,2.569 0.513,0.221 1.142,0.504 1.396,0.629 0.255,0.125 0.698,0.227 0.985,0.227 0.286,0 0.589,0.111 0.673,0.246 0.084,0.136 0.537,0.331 1.007,0.434 0.47,0.104 1.039,0.283 1.264,0.399 0.368,0.189 1.928,0.644 4.542,1.322 3.785,0.983 7.208,1.177 9.239,0.523 2.983,-0.96 2.904,-1.324 -0.284,-1.324 -2.228,0 -4.52,-0.368 -6.555,-1.054 -0.367,-0.123 -1.387,-0.432 -2.267,-0.686 -0.88,-0.254 -1.714,-0.566 -1.853,-0.694 -0.14,-0.128 -0.506,-0.232 -0.814,-0.232 -0.308,0 -0.674,-0.1 -0.813,-0.223 -0.139,-0.122 -0.853,-0.432 -1.587,-0.687 -0.733,-0.256 -1.573,-0.575 -1.866,-0.71 -0.75,-0.345 -4.227,-1.58 -4.446,-1.58 -0.1,0 -0.371,0.378 -0.601,0.841 m -36.356,18.025 c -3.815,4.884 -6.033,10.737 -5.989,15.8 0.018,1.993 0.186,2.994 1.1,6.534 0.27,1.045 2.184,5.04 2.47,5.155 0.122,0.049 0.222,0.215 0.222,0.368 0,0.298 1.994,3.309 2.58,3.896 0.194,0.193 0.353,0.441 0.353,0.549 0,0.109 0.215,0.43 0.479,0.715 0.263,0.284 1.056,1.237 1.763,2.117 0.707,0.88 1.787,2.14 2.401,2.8 0.614,0.66 1.946,2.16 2.96,3.333 1.014,1.173 2.168,2.493 2.565,2.933 1.541,1.711 2.403,2.715 3.365,3.923 1.141,1.433 1.681,1.57 2.323,0.589 0.611,-0.932 -0.129,-1.925 -7.774,-10.435 -2.997,-3.336 -4.668,-5.382 -6.499,-7.957 -2.255,-3.172 -2.176,-3.041 -3.699,-6.124 -1.369,-2.77 -1.642,-3.612 -2.334,-7.196 -0.886,-4.59 0.569,-10.718 3.798,-16 0.449,-0.733 0.906,-1.483 1.016,-1.666 0.46,-0.765 -0.38,-0.256 -1.1,0.666 m 36.469,1.826 c 0,0.087 0.197,0.537 0.438,1 0.86,1.651 0.965,1.887 1.607,3.62 1.237,3.338 1.817,9.027 1.158,11.354 -1.244,4.393 -1.343,4.669 -2.579,7.178 -0.671,1.361 -0.658,2.559 0.034,3.252 0.258,0.257 0.519,-0.049 1.235,-1.452 0.499,-0.978 0.997,-1.818 1.107,-1.867 0.11,-0.048 0.2,-0.378 0.2,-0.733 0,-0.354 0.111,-0.644 0.246,-0.644 0.135,0 0.329,-0.39 0.431,-0.867 0.102,-0.477 0.277,-0.987 0.389,-1.133 0.94,-1.227 0.829,-10.13 -0.153,-12.307 -0.209,-0.462 -0.379,-1.025 -0.379,-1.251 0,-0.226 -0.12,-0.485 -0.267,-0.576 -0.147,-0.09 -0.267,-0.387 -0.267,-0.66 0,-0.272 -0.09,-0.535 -0.2,-0.584 -0.11,-0.049 -0.616,-0.899 -1.125,-1.889 -0.508,-0.99 -1.018,-1.8 -1.133,-1.8 -0.115,0 -0.208,-0.18 -0.208,-0.4 0,-0.22 -0.12,-0.4 -0.267,-0.4 -0.147,0 -0.267,0.071 -0.267,0.159 m -2.142,29.841 c 4.035,-4.889 -3.058,5.086 1.983,-1.674 -0.352,-0.774 -0.641,-1.471 -0.641,-1.55 0,-0.078 -0.283,-0.765 -0.63,-1.526 m -2.857,5.612 c -0.364,0.406 -1.196,1.398 -1.847,2.205 -0.651,0.806 -1.682,2.006 -2.29,2.666 -0.608,0.66 -1.511,1.674 -2.007,2.252 -0.496,0.579 -1.202,1.37 -1.569,1.757 -0.788,0.834 -1.697,1.865 -3.866,4.387 -0.88,1.023 -1.823,2.103 -2.096,2.399 -0.273,0.296 -0.985,1.199 -1.582,2.005 -0.597,0.807 -1.153,1.527 -1.237,1.6 -0.301,0.264 -3.136,4.685 -3.506,5.467 -0.208,0.44 -0.439,0.86 -0.512,0.933 -0.518,0.517 -2.15,4.64 -2.639,6.667 -1.403,5.821 -1.45,8.364 -0.243,13.2 0.147,0.587 0.328,1.458 0.403,1.936 0.076,0.478 0.244,0.935 0.374,1.016 0.131,0.08 0.238,0.331 0.238,0.557 0,0.226 0.168,0.789 0.374,1.251 0.206,0.462 0.59,1.35 0.852,1.973 0.262,0.624 0.573,1.134 0.692,1.134 0.118,0 0.215,0.247 0.215,0.549 0,0.317 0.119,0.475 0.281,0.375 0.187,-0.115 0.142,-0.386 -0.133,-0.806 -0.228,-0.348 -0.415,-0.857 -0.415,-1.131 0,-0.274 -0.085,-0.584 -0.19,-0.689 -0.203,-0.202 -0.681,-1.83 -1.185,-4.032 -0.403,-1.762 -0.597,-10.14 -0.262,-11.333 0.144,-0.513 0.466,-1.713 0.716,-2.667 0.415,-1.579 0.662,-2.28 1.508,-4.266 0.618,-1.453 2.729,-5.424 3.18,-5.983 0.126,-0.156 1.166,-1.61 2.31,-3.231 1.144,-1.621 2.456,-3.361 2.915,-3.867 1.044,-1.15 1.564,-1.754 2.742,-3.18 0.513,-0.621 1.371,-1.59 1.906,-2.152 0.536,-0.562 1.146,-1.268 1.357,-1.569 0.303,-0.431 2.946,-3.418 4.603,-5.199 2.098,-2.255 2.531,-3.243 1.912,-4.358 l -0.336,-0.605 -0.663,0.739 m -12.906,20.065 -0.76,0.793 1.304,1.94 c 2.512,3.734 4.153,7.419 5.744,12.891 1.197,4.116 0.157,13.347 -2.043,18.156 -0.448,0.977 -0.471,1.16 -0.149,1.16 0.129,0 0.306,-0.21 0.392,-0.467 0.086,-0.257 0.27,-0.647 0.408,-0.867 0.877,-1.392 2.491,-6.016 3.259,-9.333 0.421,-1.817 0.44,-8.593 0.027,-9.867 -0.166,-0.513 -0.505,-1.748 -0.754,-2.743 -0.249,-0.996 -0.554,-1.873 -0.677,-1.95 -0.123,-0.076 -0.224,-0.321 -0.224,-0.545 0,-1.05 -5.01,-9.93 -5.617,-9.955 -0.083,-0.004 -0.492,0.35 -0.91,0.787"
       inkscape:connector-curvature="0"
       style="fill:#204c5f;fill-rule:evenodd;stroke:none"
       sodipodi:nodetypes="ccscccccccsccscccccccscccccccsssscccccccsccsccccccscscscccccccccscccccscscccscccccccscsccsccccccccccscscsscccsccscccscccccccccsccssccssccccscccccccccscccccccscccccscccccscscscccscccccscscsssccccccccccccccccccsssccscsscssscccscccscccsccccccccsscssccsccccccscsccsccccccccsscccccscc" />
    <path
       id="path1"
       d="m 167.733,66.71 c -0.66,0.134 -1.8,0.348 -2.533,0.475 -1.181,0.206 -2.418,0.494 -5.733,1.336 -0.514,0.13 -1.594,0.436 -2.4,0.679 -0.807,0.243 -1.887,0.544 -2.4,0.669 -2.218,0.539 -3.35,0.887 -3.587,1.101 -0.139,0.127 -0.576,0.23 -0.97,0.23 -0.393,0 -1.059,0.179 -1.48,0.398 -0.42,0.219 -1.026,0.399 -1.348,0.4 -0.321,10e-4 -0.658,0.122 -0.749,0.269 -0.09,0.146 -0.493,0.266 -0.895,0.266 -0.402,0 -0.845,0.096 -0.985,0.212 -0.3,0.251 -1.631,0.658 -7.253,2.215 -0.477,0.132 -1.257,0.35 -1.733,0.485 -0.477,0.134 -1.287,0.328 -1.8,0.431 -0.514,0.102 -1.054,0.279 -1.2,0.394 -0.147,0.115 -0.867,0.273 -1.6,0.351 -0.734,0.079 -2.234,0.35 -3.334,0.604 -2.371,0.546 -9.786,0.828 -10.226,0.389 -0.154,-0.154 -0.443,-0.281 -0.642,-0.281 -0.906,0 -2.713,-1.133 -3.579,-2.246 -0.518,-0.665 -1.019,-1.131 -1.114,-1.037 -0.278,0.278 -0.197,1.95 0.095,1.95 0.146,0 0.266,0.242 0.266,0.539 0,2.63 3.693,5.286 8.6,6.187 1.435,0.263 1.534,0.329 1.534,1.028 0,0.411 0.12,0.822 0.266,0.913 0.147,0.09 0.267,0.369 0.267,0.618 0,3.137 8.791,5.469 14.757,3.915 0.845,-0.22 1.851,-0.4 2.237,-0.4 0.386,0 1.07,-0.109 1.52,-0.242 1.91,-0.564 3.798,-1.074 4.419,-1.194 1.581,-0.302 3.086,-0.746 3.32,-0.979 0.14,-0.139 0.531,-0.252 0.871,-0.252 0.339,0 0.825,-0.105 1.08,-0.233 0.254,-0.129 1.183,-0.443 2.063,-0.698 0.88,-0.255 1.84,-0.552 2.133,-0.66 1.774,-0.651 2.473,-0.877 3.067,-0.989 0.366,-0.07 0.906,-0.219 1.2,-0.331 1.411,-0.543 3.327,-1.089 3.82,-1.089 0.301,0 0.613,-0.104 0.691,-0.231 0.079,-0.127 0.701,-0.294 1.382,-0.371 0.682,-0.077 1.328,-0.283 1.436,-0.458 0.207,-0.334 0.582,-4.051 0.425,-4.207 -0.154,-0.155 -3.74,0.541 -4.008,0.777 -0.139,0.123 -0.702,0.224 -1.251,0.224 -0.548,0 -1.067,0.113 -1.152,0.251 -0.086,0.138 -0.694,0.332 -1.353,0.431 -0.658,0.098 -1.262,0.285 -1.343,0.415 -0.08,0.13 -0.408,0.239 -0.73,0.242 -0.321,0.003 -1.424,0.302 -2.451,0.665 -1.026,0.363 -2.129,0.661 -2.451,0.661 -0.321,0.001 -0.652,0.111 -0.734,0.245 -0.083,0.134 -0.63,0.324 -1.215,0.423 -0.585,0.099 -1.131,0.289 -1.214,0.423 -0.083,0.134 -0.391,0.244 -0.685,0.244 -0.601,0 -3.057,0.708 -3.764,1.086 -0.254,0.136 -0.804,0.247 -1.222,0.247 -0.417,0 -0.849,0.09 -0.959,0.2 -0.334,0.334 -2.505,0.842 -7.756,1.814 -3.1,0.575 -7.554,0.805 -7.947,0.412 -0.161,-0.161 -0.461,-0.293 -0.666,-0.293 -0.643,0 -2.293,-0.892 -2.947,-1.594 l -0.627,-0.672 2.76,-0.195 c 1.519,-0.107 3.036,-0.317 3.373,-0.466 0.337,-0.15 1.109,-0.273 1.715,-0.273 0.606,0 1.47,-0.112 1.92,-0.249 0.451,-0.138 1.419,-0.384 2.153,-0.547 0.733,-0.164 1.813,-0.418 2.4,-0.565 0.586,-0.147 1.546,-0.359 2.133,-0.471 0.587,-0.111 1.329,-0.345 1.649,-0.519 0.32,-0.173 0.832,-0.315 1.137,-0.315 0.305,0 0.763,-0.103 1.018,-0.229 0.749,-0.371 3.164,-1.105 3.635,-1.105 0.239,0 0.643,-0.106 0.898,-0.235 0.255,-0.129 1.003,-0.375 1.663,-0.546 1.26,-0.325 1.866,-0.497 4.267,-1.207 0.806,-0.238 1.826,-0.539 2.266,-0.668 0.44,-0.129 1.88,-0.491 3.2,-0.806 1.32,-0.314 2.802,-0.695 3.293,-0.848 1.309,-0.405 7.121,-0.388 7.616,0.023 0.346,0.287 0.259,0.537 -0.655,1.875 -0.579,0.849 -1.054,1.761 -1.054,2.026 0,0.265 -0.141,0.872 -0.313,1.349 -0.64,1.77 0.661,5.436 2.934,8.266 1.16,1.446 3.693,3.48 3.978,3.195 0.196,-0.196 -0.484,-2.024 -0.753,-2.024 -0.135,0 -0.246,-0.22 -0.246,-0.489 0,-0.268 -0.077,-0.566 -0.172,-0.661 -0.557,-0.557 -1.144,-3.196 -1.152,-5.176 -0.017,-4.309 2.788,-7.999 6.658,-8.758 1.239,-0.243 2.005,-2.336 1.066,-2.916 -0.146,-0.09 -0.266,-0.378 -0.266,-0.639 0,-0.479 -2.155,-2.694 -2.621,-2.694 -0.138,0 -0.595,-0.179 -1.016,-0.398 -0.871,-0.455 -6.805,-0.516 -8.897,-0.092 m 29.734,-0.12 c -0.294,0.071 -0.648,0.237 -0.787,0.369 -0.139,0.133 -0.439,0.243 -0.667,0.245 -0.498,0.005 -2.146,1.411 -2.146,1.831 0,0.164 -0.101,0.298 -0.223,0.298 -0.123,0 -0.412,0.679 -0.643,1.509 -0.507,1.821 -0.259,2.406 1.13,2.666 6.106,1.144 8.584,9.564 4.624,15.713 -0.867,1.347 0.552,1.196 2.073,-0.221 4.873,-4.541 5.984,-10.447 2.636,-14.013 -1.451,-1.545 3.445,-2.05 8.536,-0.881 2,0.459 4.11,0.993 4.533,1.147 0.22,0.08 1.12,0.344 2,0.587 0.88,0.242 2.08,0.573 2.667,0.735 0.587,0.162 1.547,0.446 2.133,0.632 0.587,0.186 1.607,0.485 2.267,0.664 0.66,0.179 1.652,0.492 2.205,0.694 0.553,0.203 1.296,0.368 1.651,0.368 0.355,0 0.72,0.12 0.811,0.267 0.09,0.147 0.411,0.267 0.713,0.267 0.302,0 1.105,0.174 1.784,0.386 0.68,0.213 1.716,0.504 2.303,0.646 0.586,0.142 1.606,0.408 2.266,0.591 1.12,0.309 1.723,0.428 5.2,1.027 0.734,0.127 2.173,0.376 3.199,0.554 3.217,0.559 8.071,0.154 10.064,-0.84 0.255,-0.127 0.646,-0.231 0.869,-0.231 0.851,0 3.976,-3.517 4.443,-5.001 0.557,-1.768 0.097,-3.625 -0.495,-1.999 -0.264,0.726 -1.577,1.81 -2.818,2.327 -0.621,0.259 -1.373,0.582 -1.671,0.719 -0.805,0.37 -7.954,0.096 -10.257,-0.393 -1.1,-0.234 -2.6,-0.546 -3.334,-0.695 -0.733,-0.149 -1.993,-0.469 -2.8,-0.712 -0.806,-0.242 -1.946,-0.501 -2.533,-0.573 -0.587,-0.073 -1.193,-0.234 -1.347,-0.358 -0.154,-0.124 -0.786,-0.306 -1.405,-0.405 -0.62,-0.099 -1.191,-0.284 -1.27,-0.412 -0.078,-0.127 -0.406,-0.234 -0.727,-0.237 -0.321,-0.003 -1.424,-0.303 -2.451,-0.665 -1.027,-0.363 -2.13,-0.661 -2.451,-0.662 -0.321,0 -0.652,-0.11 -0.735,-0.244 -0.082,-0.134 -0.629,-0.324 -1.214,-0.423 -0.585,-0.099 -1.132,-0.29 -1.214,-0.424 -0.083,-0.133 -0.398,-0.243 -0.699,-0.243 -0.493,0 -2.409,-0.546 -3.82,-1.088 -0.294,-0.113 -0.834,-0.264 -1.2,-0.337 -0.367,-0.072 -1.327,-0.33 -2.134,-0.574 -0.806,-0.244 -1.886,-0.547 -2.4,-0.674 -0.513,-0.127 -1.713,-0.427 -2.666,-0.667 -0.954,-0.239 -2.334,-0.54 -3.067,-0.667 -0.733,-0.127 -1.933,-0.351 -2.667,-0.496 -1.346,-0.268 -7.28,-0.344 -8.266,-0.107 m -21.359,0.528 c 3.974,1.115 5.8,5.479 2.559,6.115 -5.372,1.054 -7.851,8.374 -4.958,14.636 0.508,1.099 0.811,1.998 0.674,1.998 -0.137,0 -0.25,-0.12 -0.25,-0.267 0,-0.147 -0.132,-0.267 -0.293,-0.267 -0.737,0 -4.507,-4.74 -4.507,-5.667 0,-0.198 -0.131,-0.49 -0.291,-0.65 -1.11,-1.111 -0.152,-6.16 1.498,-7.899 2.767,-2.915 -5.282,-2.786 -15.473,0.248 -0.734,0.219 -1.634,0.46 -2,0.536 -0.367,0.077 -0.907,0.233 -1.2,0.348 -0.527,0.207 -2.332,0.734 -4.667,1.363 -0.66,0.178 -1.68,0.476 -2.267,0.662 -0.586,0.185 -1.546,0.467 -2.133,0.625 -0.587,0.158 -1.787,0.481 -2.667,0.719 -0.88,0.237 -2.08,0.548 -2.666,0.69 -0.587,0.142 -1.667,0.426 -2.4,0.632 -0.734,0.206 -1.754,0.427 -2.267,0.492 -0.513,0.064 -1.773,0.252 -2.8,0.418 -5.55,0.894 -9.413,0.814 -12,-0.249 -0.293,-0.121 -0.713,-0.289 -0.933,-0.375 -1.867,-0.727 -4.267,-3.671 -4.267,-5.233 0,-0.519 0.087,-0.493 1.133,0.334 2.375,1.879 8.971,2.579 13.347,1.417 0.85,-0.226 1.802,-0.411 2.114,-0.411 0.313,0 0.937,-0.112 1.387,-0.25 0.45,-0.137 1.839,-0.489 3.086,-0.781 2.709,-0.634 6.275,-1.565 7.2,-1.879 0.366,-0.125 1.386,-0.438 2.266,-0.696 0.88,-0.257 1.84,-0.559 2.134,-0.669 0.293,-0.11 1.433,-0.462 2.533,-0.783 1.1,-0.32 2.96,-0.884 4.133,-1.253 1.174,-0.37 2.494,-0.768 2.934,-0.885 0.44,-0.117 1.52,-0.413 2.4,-0.658 3.174,-0.883 6.515,-1.655 10.4,-2.403 2.688,-0.517 6.312,-0.499 8.241,0.042 m 29.967,0.084 c 1.802,0.359 2.213,0.456 7.258,1.724 2.127,0.535 4.167,1.034 4.534,1.11 0.366,0.076 0.906,0.232 1.2,0.347 0.293,0.115 1.253,0.42 2.133,0.678 0.88,0.258 1.9,0.565 2.267,0.682 0.366,0.118 1.386,0.419 2.266,0.668 0.88,0.25 2.46,0.739 3.512,1.088 1.051,0.349 2.103,0.634 2.337,0.634 0.234,0 0.634,0.107 0.888,0.238 0.7,0.359 3.372,1.096 3.976,1.096 0.292,0 0.618,0.085 0.722,0.19 0.241,0.241 2.29,0.812 4.032,1.124 0.733,0.131 2.533,0.505 4,0.83 5.783,1.281 11.845,0.805 14.333,-1.127 l 1,-0.776 v 0.71 c 0,1.026 -1.991,3.627 -3.211,4.197 -0.214,0.1 -0.569,0.288 -0.789,0.419 -2.948,1.75 -9.276,1.762 -16.933,0.032 -0.733,-0.166 -1.693,-0.362 -2.133,-0.435 -0.44,-0.074 -1.04,-0.237 -1.334,-0.362 -0.293,-0.126 -0.833,-0.283 -1.2,-0.349 -0.927,-0.166 -3.225,-0.752 -3.866,-0.985 -0.585,-0.212 -2.787,-0.845 -4.667,-1.34 -0.66,-0.174 -1.684,-0.484 -2.276,-0.689 -0.591,-0.205 -1.283,-0.373 -1.537,-0.373 -0.253,0 -0.669,-0.103 -0.924,-0.229 -0.803,-0.397 -3.18,-1.104 -3.712,-1.104 -0.281,0 -0.625,-0.097 -0.764,-0.216 -0.14,-0.119 -1.214,-0.429 -2.387,-0.688 -1.173,-0.259 -2.553,-0.576 -3.067,-0.703 -6.028,-1.491 -10.446,-0.556 -8.586,1.817 0.427,0.544 0.94,1.29 1.142,1.657 0.457,0.832 0.506,5.253 0.069,6.159 -0.171,0.353 -0.38,0.821 -0.465,1.041 -0.533,1.367 -3.962,5.353 -4.308,5.006 -0.104,-0.103 0.016,-0.642 0.265,-1.197 0.249,-0.555 0.556,-1.249 0.683,-1.543 0.603,-1.394 0.998,-5.908 0.557,-6.35 -0.16,-0.159 -0.29,-0.54 -0.29,-0.847 0,-2.13 -3.039,-5.237 -6.132,-6.269 -2.391,-0.798 -0.903,-5.005 2.018,-5.708 0.429,-0.103 1.201,-0.283 1.714,-0.399 1.239,-0.281 5.764,-0.138 7.675,0.242 m -0.208,11.337 c 0,2.21 0.27,2.727 1.536,2.936 0.548,0.091 1.297,0.263 1.664,0.382 0.366,0.119 1.446,0.423 2.4,0.676 0.953,0.252 1.973,0.552 2.266,0.665 0.294,0.114 1.254,0.416 2.134,0.671 0.88,0.255 1.808,0.569 2.063,0.698 0.254,0.128 0.64,0.233 0.857,0.233 0.217,0 0.789,0.166 1.271,0.368 0.481,0.202 1.295,0.486 1.809,0.63 1.967,0.552 4.155,1.219 4.666,1.421 0.294,0.116 0.894,0.271 1.334,0.344 0.44,0.072 1.34,0.273 2,0.445 11.059,2.883 17.639,2.059 20.292,-2.541 1.249,-2.165 0.771,-2.947 -0.861,-1.41 -1.932,1.817 -5.556,2.245 -10.631,1.254 -1.54,-0.3 -3.34,-0.65 -4,-0.776 -0.66,-0.127 -1.92,-0.43 -2.8,-0.673 -0.88,-0.244 -1.96,-0.508 -2.4,-0.586 -0.44,-0.079 -0.926,-0.243 -1.08,-0.364 -0.154,-0.122 -0.787,-0.303 -1.406,-0.402 -0.619,-0.099 -1.191,-0.284 -1.269,-0.412 -0.079,-0.127 -0.472,-0.231 -0.874,-0.231 -0.402,0 -0.845,-0.113 -0.985,-0.252 -0.248,-0.246 -1.862,-0.715 -3.453,-1.004 -0.44,-0.079 -0.92,-0.236 -1.067,-0.347 -0.146,-0.111 -0.686,-0.29 -1.2,-0.397 -0.513,-0.108 -1.053,-0.286 -1.2,-0.398 -0.146,-0.111 -0.626,-0.269 -1.066,-0.351 -0.44,-0.082 -1.46,-0.349 -2.267,-0.595 -0.807,-0.245 -1.947,-0.544 -2.533,-0.664 -0.587,-0.121 -1.547,-0.335 -2.134,-0.478 -0.586,-0.142 -1.516,-0.336 -2.066,-0.432 l -1,-0.173 v 1.763 M 167.2,78.876 c 0,1.692 -0.694,2.457 -2.229,2.457 -0.373,0 -0.955,0.105 -1.292,0.232 -0.337,0.128 -1.332,0.445 -2.212,0.704 -0.88,0.259 -2.44,0.735 -3.467,1.058 -1.027,0.324 -2.947,0.92 -4.267,1.326 -1.32,0.406 -2.64,0.828 -2.933,0.938 -0.543,0.205 -2.609,0.804 -4.533,1.315 -0.587,0.155 -1.547,0.417 -2.134,0.581 -1.867,0.52 -3.314,0.798 -8.133,1.561 -5.199,0.823 -9.824,-0.347 -11.845,-2.996 -1.064,-1.394 -0.902,-2.308 0.228,-1.288 1.398,1.263 7.01,1.848 10.284,1.072 0.66,-0.157 1.8,-0.381 2.533,-0.5 1.319,-0.212 5.028,-1.154 7.867,-1.996 0.806,-0.24 1.766,-0.498 2.133,-0.575 0.367,-0.076 0.907,-0.233 1.2,-0.348 0.293,-0.115 1.193,-0.404 2,-0.643 0.807,-0.238 2.423,-0.735 3.593,-1.104 1.169,-0.368 2.28,-0.67 2.47,-0.67 0.189,0 0.553,-0.107 0.807,-0.238 0.652,-0.334 3.354,-1.095 3.89,-1.095 0.246,0 0.656,-0.109 0.91,-0.242 0.551,-0.286 3.676,-1.019 4.53,-1.062 0.557,-0.028 0.6,0.082 0.6,1.513 m 41.817,-0.972 c 0.34,0.126 0.95,0.229 1.356,0.229 0.406,0 0.828,0.09 0.938,0.2 0.181,0.181 1.909,0.674 3.622,1.034 0.367,0.077 0.907,0.242 1.2,0.366 0.294,0.124 1.254,0.427 2.134,0.673 0.88,0.246 1.84,0.539 2.133,0.65 0.293,0.111 1.253,0.414 2.133,0.671 0.88,0.258 1.9,0.562 2.267,0.674 0.367,0.113 1.447,0.412 2.4,0.665 0.953,0.253 1.973,0.554 2.267,0.67 0.293,0.115 1.373,0.408 2.4,0.651 1.026,0.243 2.286,0.554 2.8,0.691 5.481,1.469 12.563,1.375 14.421,-0.19 1.228,-1.035 1.011,0.392 -0.253,1.67 -2.136,2.156 -5.507,3.044 -9.688,2.552 -3.991,-0.47 -8.617,-1.265 -9.102,-1.565 -0.149,-0.092 -0.7,-0.261 -1.224,-0.377 -1.991,-0.439 -3.114,-0.725 -3.888,-0.99 -0.44,-0.151 -1.88,-0.595 -3.2,-0.988 -1.32,-0.393 -2.64,-0.804 -2.933,-0.915 -0.293,-0.11 -1.253,-0.411 -2.133,-0.669 -0.88,-0.257 -1.84,-0.555 -2.134,-0.662 -1.653,-0.602 -3.34,-1.077 -3.82,-1.077 -0.301,0 -0.613,-0.104 -0.691,-0.232 -0.079,-0.127 -0.686,-0.292 -1.349,-0.367 -1.425,-0.16 -2.006,-0.571 -2.006,-1.417 0,-0.339 -0.121,-0.934 -0.269,-1.323 -0.462,-1.215 0.445,-1.432 2.619,-0.624 m -23.514,1.212 c -1.132,0.186 -2.992,2.216 -3.196,3.489 -0.312,1.956 1.124,4.819 2.435,4.853 0.614,0.016 0.624,0.448 0.674,31.111 0.029,16.998 0.155,30.599 0.288,30.898 0.281,0.632 -2.205,-1.861 -3.655,-3.667 -0.56,-0.696 -1.443,-1.716 -1.962,-2.266 -0.52,-0.55 -1.502,-1.656 -2.183,-2.457 -1.23,-1.447 -3.248,-3.756 -3.506,-4.01 -0.074,-0.074 -0.49,-0.614 -0.924,-1.2 -0.435,-0.587 -1.064,-1.366 -1.399,-1.731 -0.335,-0.365 -0.608,-0.794 -0.608,-0.953 0,-0.16 -0.3,-0.572 -0.667,-0.916 -0.367,-0.345 -0.667,-0.723 -0.667,-0.842 0,-0.118 -0.39,-0.847 -0.866,-1.62 -1.213,-1.966 -2.287,-4.29 -2.836,-6.138 -0.164,-0.55 -0.413,-1.39 -0.555,-1.867 -0.849,-2.862 -0.442,-9.133 0.784,-12.067 0.815,-1.95 3.057,-6.266 3.255,-6.266 0.12,0 0.218,-0.122 0.218,-0.271 0,-0.234 2.513,-3.89 2.929,-4.263 0.487,-0.435 2.138,-2.532 2.138,-2.714 0,-0.734 -3.496,2.546 -5.594,5.248 -0.456,0.586 -0.975,1.246 -1.154,1.466 -1.347,1.656 -4.229,6.886 -4.593,8.336 -0.102,0.405 -0.291,0.802 -0.422,0.883 -0.13,0.08 -0.237,0.595 -0.237,1.144 0,0.548 -0.15,1.147 -0.333,1.331 -0.236,0.235 -0.334,1.457 -0.334,4.173 0,2.716 0.098,3.938 0.334,4.173 0.183,0.184 0.333,0.671 0.333,1.084 0,0.413 0.108,0.959 0.239,1.213 0.132,0.255 0.444,1.003 0.694,1.663 0.541,1.427 0.596,1.542 1.731,3.6 0.485,0.88 0.984,1.64 1.109,1.689 0.125,0.049 0.227,0.199 0.227,0.333 0,0.23 2.562,3.963 2.914,4.245 0.092,0.073 0.582,0.673 1.089,1.333 0.507,0.66 1.044,1.332 1.193,1.493 0.225,0.243 2.272,2.558 3.871,4.377 0.22,0.25 1.193,1.342 2.163,2.426 0.97,1.084 2.639,2.991 3.709,4.238 1.191,1.387 2.136,2.258 2.437,2.245 0.747,-0.032 0.622,0.273 -1.109,2.709 -0.88,1.239 -1.6,2.37 -1.6,2.515 0,0.145 -0.112,0.264 -0.249,0.264 -0.137,0 -0.334,0.268 -0.438,0.597 -0.104,0.328 -0.465,1.018 -0.802,1.533 -0.338,0.515 -0.931,1.717 -1.32,2.67 -0.388,0.953 -0.815,1.942 -0.949,2.196 -0.133,0.255 -0.242,0.647 -0.242,0.871 0,0.224 -0.115,0.615 -0.256,0.87 -1.269,2.296 -1.302,13.034 -0.049,15.93 0.127,0.293 0.381,1.013 0.565,1.6 0.531,1.695 3.037,7.188 3.467,7.6 0.198,0.189 0.777,1.126 0.988,1.6 0.099,0.22 0.248,0.46 0.332,0.533 0.263,0.229 0.828,1.179 0.992,1.667 0.086,0.256 0.322,0.466 0.525,0.466 0.498,0 0.472,-1.044 -0.031,-1.237 -0.22,-0.084 -0.4,-0.301 -0.4,-0.483 0,-0.181 -0.406,-1.158 -0.901,-2.171 -1.6,-3.268 -2.299,-4.912 -2.299,-5.405 0,-0.265 -0.09,-0.571 -0.2,-0.681 -0.11,-0.11 -0.359,-0.82 -0.554,-1.578 -1.647,-6.402 -1.156,-14.108 1.186,-18.619 0.203,-0.389 0.368,-0.896 0.368,-1.125 0,-0.23 0.22,-0.811 0.489,-1.293 0.27,-0.481 0.818,-1.474 1.22,-2.208 1.433,-2.618 3.753,-5.818 3.84,-5.295 0.113,0.688 0.928,2.229 1.178,2.229 0.114,0 0.206,0.18 0.206,0.4 0,0.22 0.106,0.4 0.236,0.4 0.129,0 0.308,0.21 0.397,0.466 0.089,0.257 0.525,1.067 0.967,1.8 0.724,1.199 1.427,2.616 2.148,4.334 0.139,0.33 0.367,0.87 0.506,1.2 1.285,3.034 1.972,8.337 1.58,12.2 -0.401,3.953 -0.544,4.913 -0.773,5.2 -0.117,0.146 -0.297,0.718 -0.4,1.269 -0.103,0.552 -0.294,1.069 -0.424,1.149 -0.13,0.081 -0.237,0.381 -0.237,0.668 0,0.286 -0.114,0.729 -0.253,0.984 -0.14,0.255 -0.455,0.943 -0.699,1.53 -0.798,1.911 -1.815,3.984 -2.322,4.733 -0.273,0.404 -0.458,0.998 -0.411,1.32 0.071,0.486 0.267,0.316 1.152,-1 0.587,-0.873 1.127,-1.647 1.2,-1.72 0.665,-0.665 3.336,-6.276 4.506,-9.467 1.212,-3.302 1.799,-14.066 0.801,-14.683 -0.132,-0.081 -0.241,-0.531 -0.242,-0.999 -10e-4,-0.468 -0.181,-1.195 -0.4,-1.615 -0.219,-0.42 -0.398,-0.932 -0.398,-1.137 0,-0.377 -0.082,-0.578 -0.889,-2.187 -0.244,-0.489 -0.445,-1.049 -0.445,-1.245 0,-0.196 -0.09,-0.396 -0.2,-0.445 -0.11,-0.049 -0.527,-0.726 -0.928,-1.506 -1.104,-2.148 -1.638,-3.07 -2.005,-3.463 -0.183,-0.197 -0.334,-0.439 -0.334,-0.539 -0.002,-0.532 -1.538,-1.921 -1.95,-1.763 -0.428,0.165 -0.666,-0.277 -0.249,-0.462 0.11,-0.049 0.739,-0.749 1.399,-1.556 1.764,-2.157 2.21,-2.684 2.801,-3.31 0.293,-0.31 0.968,-1.103 1.5,-1.761 0.533,-0.657 1.373,-1.625 1.867,-2.151 1.3,-1.382 3.48,-3.794 4.1,-4.538 0.294,-0.352 1.044,-1.247 1.667,-1.99 0.879,-1.049 1.14,-1.585 1.169,-2.4 0.025,-0.743 0.072,-0.855 0.16,-0.383 0.068,0.367 0.202,0.727 0.297,0.8 2.564,-5.437 0,0 2.58,-4.434 0.407,0.156 1.678,-1.591 2.499,-3.433 0.196,-0.44 0.471,-1.022 0.611,-1.293 2.112,-4.095 2.492,-12.323 0.725,-15.703 -0.133,-0.255 -0.242,-0.621 -0.242,-0.813 0,-1.613 -4.77,-8.833 -8.272,-12.521 -2.534,-2.668 -3.464,-3.016 -1.565,-0.586 1.918,2.455 4.765,6.625 4.768,6.983 0.001,0.183 0.099,0.333 0.218,0.333 0.118,0 0.43,0.51 0.692,1.134 0.262,0.623 0.723,1.673 1.023,2.333 0.548,1.203 0.802,2.034 1.309,4.267 0.378,1.661 0.363,6.814 -0.024,8.266 -0.175,0.66 -0.38,1.5 -0.454,1.867 -0.168,0.828 -0.31,1.172 -1.669,4.041 -0.601,1.269 -1.093,2.469 -1.093,2.666 -5.334,7.96 0,0 -2.37,3.489 0.395,0.773 0.322,1.484 -0.096,0.933 -0.292,-0.385 -0.671,-0.036 -3.057,2.816 -1.498,1.79 -3.061,3.615 -3.472,4.055 -0.411,0.44 -2.003,2.24 -3.538,4 -1.535,1.76 -3.122,3.56 -3.527,4 -0.406,0.44 -0.738,0.89 -0.738,1 -0.001,0.11 -0.135,0.2 -0.299,0.2 -0.182,0 -0.128,-0.258 0.138,-0.664 0.396,-0.605 0.435,-3.388 0.434,-30.957 -0.001,-29.72 0.041,-31.312 0.822,-31.312 0.429,0 1.686,-1.365 2.186,-2.375 1.603,-3.23 -1.532,-6.628 -5.513,-5.976 m 3.504,0.829 c 2.002,1.294 2.456,4.551 0.855,6.133 -0.401,0.397 -1.105,1.038 -1.563,1.425 l -0.832,0.702 -0.004,30.498 c -0.004,30.133 -0.041,31.408 -0.903,31.078 -0.388,-0.149 -0.427,-2.95 -0.427,-30.723 0,-32.633 0.066,-31.178 -1.45,-32.114 -2.587,-1.6 -2.684,-5.139 -0.189,-6.916 1.202,-0.856 3.259,-0.894 4.513,-0.083 m -22.74,4.164 c -2.205,1.001 -2.781,1.224 -3.158,1.224 -0.226,0 -0.485,0.12 -0.576,0.267 -0.09,0.147 -0.399,0.267 -0.686,0.267 -0.286,0 -0.729,0.112 -0.984,0.249 -1.177,0.635 -2.32,1.084 -2.755,1.084 -0.262,0 -0.542,0.106 -0.623,0.236 -0.08,0.13 -0.597,0.321 -1.149,0.424 -0.551,0.103 -1.123,0.282 -1.269,0.397 -0.147,0.115 -0.627,0.279 -1.067,0.363 -0.44,0.085 -1.58,0.352 -2.533,0.593 -2.973,0.752 -5.143,0.802 -6.529,0.15 -1.493,-0.701 -1.549,-0.7 -1.324,0.037 0.717,2.354 6.343,3.712 10.653,2.572 0.586,-0.156 1.426,-0.341 1.866,-0.412 0.44,-0.071 1.04,-0.233 1.334,-0.36 0.293,-0.127 0.893,-0.288 1.333,-0.36 0.919,-0.148 4.574,-1.381 5.263,-1.775 0.255,-0.146 0.592,-0.265 0.75,-0.265 0.158,0 0.909,-0.288 1.67,-0.64 0.761,-0.352 1.654,-0.721 1.984,-0.818 0.839,-0.249 1.236,-1.058 0.727,-1.48 -0.217,-0.18 -0.394,-0.491 -0.394,-0.692 0,-1.157 -1.208,-1.663 -2.533,-1.061 m 39.127,-0.042 c -1.905,2.344 -1.44,3.3 2.006,4.119 0.33,0.079 0.6,0.235 0.6,0.348 0,0.113 0.33,0.269 0.733,0.347 0.802,0.154 4.038,1.287 4.469,1.565 0.148,0.095 0.748,0.252 1.333,0.349 0.586,0.097 1.305,0.275 1.598,0.396 4.126,1.693 10.994,1.37 12.978,-0.612 0.751,-0.749 1.113,-2.113 0.422,-1.593 -0.744,0.561 -2.571,0.929 -3.953,0.797 -2.193,-0.209 -4.882,-0.733 -5.167,-1.006 -0.139,-0.134 -0.499,-0.248 -0.8,-0.252 -0.599,-0.01 -3.253,-0.876 -3.529,-1.152 -0.095,-0.095 -0.379,-0.173 -0.631,-0.173 -0.252,0 -0.802,-0.179 -1.223,-0.398 -0.42,-0.219 -0.966,-0.399 -1.214,-0.4 -0.248,-0.001 -0.525,-0.122 -0.616,-0.269 -0.091,-0.146 -0.399,-0.266 -0.686,-0.266 -0.287,0 -0.73,-0.113 -0.984,-0.25 -1.042,-0.561 -2.299,-1.084 -2.607,-1.084 -0.181,0 -0.672,-0.179 -1.093,-0.398 -0.933,-0.487 -1.284,-0.501 -1.636,-0.068 m -36.904,1.308 c 0.535,0.967 0.25,1.825 -0.607,1.825 -0.115,0 -1.426,0.47 -2.913,1.045 -3.682,1.422 -3.616,1.398 -4.97,1.813 -5.821,1.781 -10.632,2.349 -12.861,1.517 -3.07,-1.145 -3.173,-1.627 -0.317,-1.483 1.986,0.1 4.266,-0.215 6.378,-0.881 0.587,-0.185 1.847,-0.553 2.8,-0.819 0.953,-0.265 1.847,-0.582 1.987,-0.704 0.139,-0.122 0.421,-0.221 0.626,-0.221 0.205,0 0.751,-0.169 1.213,-0.374 0.463,-0.206 1.741,-0.702 2.841,-1.103 2.016,-0.734 3.043,-1.131 4.266,-1.648 0.766,-0.324 0.828,-0.283 1.557,1.033 m 39.378,-0.441 c 1.026,0.367 2.105,0.778 2.399,0.913 0.293,0.135 1.133,0.454 1.866,0.71 0.734,0.255 1.448,0.565 1.587,0.687 0.139,0.123 0.505,0.223 0.813,0.223 0.308,0 0.674,0.104 0.814,0.232 0.139,0.128 0.973,0.44 1.853,0.694 0.88,0.254 1.9,0.563 2.267,0.686 2.035,0.686 4.327,1.054 6.555,1.054 3.188,0 3.267,0.364 0.284,1.324 -2.031,0.654 -5.454,0.46 -9.239,-0.523 -2.614,-0.678 -4.174,-1.133 -4.542,-1.322 -0.225,-0.116 -0.794,-0.295 -1.264,-0.399 -0.47,-0.103 -0.923,-0.298 -1.007,-0.434 -0.084,-0.135 -0.387,-0.246 -0.673,-0.246 -0.287,0 -0.73,-0.102 -0.985,-0.227 -0.254,-0.125 -0.883,-0.408 -1.396,-0.629 -2.681,-1.155 -2.684,-1.159 -1.98,-2.569 0.503,-1.009 0.343,-0.999 2.648,-0.174 m -37.904,17.533 c -0.11,0.183 -0.567,0.933 -1.016,1.666 -2.234,3.655 -3.424,7.043 -3.887,11.067 -0.329,2.858 -0.185,4.341 0.802,8.263 0.271,1.076 2.439,5.751 3.272,7.056 1.966,3.08 4.982,6.923 8.547,10.891 7.645,8.51 8.385,9.503 7.774,10.435 -0.642,0.981 -1.182,0.844 -2.323,-0.589 -0.962,-1.208 -1.824,-2.212 -3.365,-3.923 -0.397,-0.44 -1.551,-1.76 -2.565,-2.933 -1.014,-1.173 -2.346,-2.673 -2.96,-3.333 -0.614,-0.66 -1.694,-1.92 -2.401,-2.8 -0.707,-0.88 -1.5,-1.833 -1.763,-2.117 -0.264,-0.285 -0.479,-0.606 -0.479,-0.715 0,-0.108 -0.159,-0.356 -0.353,-0.549 -0.586,-0.587 -2.58,-3.598 -2.58,-3.896 0,-0.153 -0.1,-0.319 -0.222,-0.368 -0.286,-0.115 -2.2,-4.11 -2.47,-5.155 -0.914,-3.54 -1.082,-4.541 -1.1,-6.534 -0.044,-5.063 2.174,-10.916 5.989,-15.8 0.72,-0.922 1.56,-1.431 1.1,-0.666 m 35.903,2.733 c 0,0.22 0.093,0.4 0.208,0.4 0.115,0 0.625,0.81 1.133,1.8 0.509,0.99 1.015,1.84 1.125,1.889 0.11,0.049 0.2,0.312 0.2,0.584 0,0.273 0.12,0.57 0.267,0.66 0.147,0.091 0.267,0.35 0.267,0.576 0,0.226 0.17,0.789 0.379,1.251 0.982,2.177 1.093,11.08 0.153,12.307 -0.112,0.146 -0.287,0.656 -0.389,1.133 -0.102,0.477 -0.296,0.867 -0.431,0.867 -0.135,0 -0.246,0.29 -0.246,0.644 0,0.355 -0.09,0.685 -0.2,0.733 -0.11,0.049 -0.608,0.889 -1.107,1.867 -0.716,1.403 -0.977,1.709 -1.235,1.452 -0.692,-0.693 -0.705,-1.891 -0.034,-3.252 1.236,-2.509 1.335,-2.785 2.579,-7.178 0.659,-2.327 0.079,-8.016 -1.158,-11.354 -0.642,-1.733 -0.747,-1.969 -1.607,-3.62 -0.509,-0.978 -0.535,-1.159 -0.171,-1.159 0.147,0 0.267,0.18 0.267,0.4 m -1.964,24.85 c 0.347,0.761 0.63,1.448 0.63,1.526 0,0.079 0.289,0.776 0.641,1.55 -3.373,5.657 3.332,-4.193 -1.983,1.674 m -0.8,1.822 c 0.007,0.405 -1.135,2.057 -2.258,3.264 -1.657,1.781 -4.3,4.768 -4.603,5.199 -0.211,0.301 -0.821,1.007 -1.357,1.569 -0.535,0.562 -1.393,1.531 -1.906,2.152 -1.178,1.426 -1.698,2.03 -2.742,3.18 -0.459,0.506 -1.771,2.246 -2.915,3.867 -1.144,1.621 -2.184,3.075 -2.31,3.231 -0.451,0.559 -2.562,4.53 -3.18,5.983 -0.846,1.986 -1.093,2.687 -1.508,4.266 -0.25,0.954 -0.572,2.154 -0.716,2.667 -0.335,1.193 -0.141,9.571 0.262,11.333 0.504,2.202 0.982,3.83 1.185,4.032 0.105,0.105 0.19,0.415 0.19,0.689 0,0.274 0.187,0.783 0.415,1.131 0.275,0.42 0.32,0.691 0.133,0.806 -0.162,0.1 -0.281,-0.058 -0.281,-0.375 0,-0.302 -0.097,-0.549 -0.215,-0.549 -0.119,0 -0.43,-0.51 -0.692,-1.134 -0.262,-0.623 -0.646,-1.511 -0.852,-1.973 -0.206,-0.462 -0.374,-1.025 -0.374,-1.251 0,-0.226 -0.107,-0.477 -0.238,-0.557 -0.13,-0.081 -0.298,-0.538 -0.374,-1.016 -0.075,-0.478 -0.256,-1.349 -0.403,-1.936 -1.207,-4.836 -1.16,-7.379 0.243,-13.2 0.489,-2.027 2.121,-6.15 2.639,-6.667 0.073,-0.073 0.304,-0.493 0.512,-0.933 0.37,-0.782 3.205,-5.203 3.506,-5.467 0.084,-0.073 0.64,-0.793 1.237,-1.6 0.597,-0.806 1.309,-1.709 1.582,-2.005 0.273,-0.296 1.216,-1.376 2.096,-2.399 2.169,-2.522 3.078,-3.553 3.866,-4.387 0.367,-0.387 1.073,-1.178 1.569,-1.757 0.496,-0.578 1.399,-1.592 2.007,-2.252 0.608,-0.66 1.639,-1.86 2.29,-2.666 0.651,-0.807 1.483,-1.799 1.847,-2.205 l 0.663,-0.739 0.336,0.605 c 0.185,0.333 0.34,0.825 0.346,1.094 m -15.308,13.805 c 0.1,0.161 -0.073,0.548 -0.384,0.859 l -0.566,0.566 v -0.859 c 0,-0.863 0.561,-1.197 0.95,-0.566 m 3.232,6.179 c 1.809,2.694 4.352,7.538 4.352,8.289 0,0.224 0.101,0.469 0.224,0.545 0.123,0.077 0.428,0.954 0.677,1.95 0.249,0.995 0.588,2.23 0.754,2.743 0.413,1.274 0.394,8.05 -0.027,9.867 -0.768,3.317 -2.382,7.941 -3.259,9.333 -0.138,0.22 -0.322,0.61 -0.408,0.867 -0.086,0.257 -0.263,0.467 -0.392,0.467 -0.322,0 -0.299,-0.183 0.149,-1.16 2.2,-4.809 3.24,-14.04 2.043,-18.156 -1.591,-5.472 -3.232,-9.157 -5.744,-12.891 l -1.304,-1.94 0.76,-0.793 c 0.975,-1.018 0.874,-1.059 2.175,0.879"
       inkscape:connector-curvature="0"
       style="fill:#9abdc3;fill-rule:evenodd;stroke:none"
       sodipodi:nodetypes="ccccccscccsccccccccsccsscscscscccscscccscccccscccccccssscsscssccccscccccscssccsccccsccsssscccsscccccssccccccccscscscsccccccsccccccccsccscccscscccccscccccsssscccccccscccccccsccscccccccscccccccscccscscccccscccccccccscscsccccccsccscccccccccscsccccccccccccscscccccscccccccscscsccccccccccsccscsccccssccssccscccccccccscccsccsccccccccccccsscsccccsscsccccscscscccsscsccscccssccccscccccccscscssccscccsssccccccccscccccsccssscssccccccccccccccccccscccsccccccccccssccsccsccccccccsccccscscsccccccccscccssccscccscccccccccsscscscscccscccccccsccccccccscscscccccscccccccccccccssscscsccccccscsscsccssscccccccsccsccccccscsccccccsccsscssccccccccscccsccccccscsccscccccsscccccc" />
  </g>
</svg>
