<?xml version="1.0" standalone="no"?>
<!DOCTYPE svg PUBLIC "-//W3C//DTD SVG 20010904//EN"
 "http://www.w3.org/TR/2001/REC-SVG-20010904/DTD/svg10.dtd">
<svg version="1.0" xmlns="http://www.w3.org/2000/svg"
 width="596.000000pt" height="596.000000pt" viewBox="0 0 596.000000 596.000000"
 preserveAspectRatio="xMidYMid meet">
<metadata>
Created by potrace 1.11, written by Peter Selinger 2001-2013
</metadata>
<g transform="translate(0.000000,596.000000) scale(0.100000,-0.100000)"
fill="#000000" stroke="none">
<path d="M2125 5540 c-119 -25 -217 -50 -380 -95 -33 -10 -69 -19 -80 -21 -11
-2 -47 -13 -80 -23 -80 -27 -166 -52 -187 -56 -9 -2 -26 -9 -37 -15 -12 -6
-21 -9 -21 -6 0 3 -39 -9 -87 -25 -49 -16 -89 -29 -90 -29 -2 0 -4 0 -5 -1 -2
0 -10 -2 -18 -4 -8 -2 -49 -13 -90 -25 -41 -12 -106 -29 -145 -38 -38 -8 -72
-19 -75 -23 -3 -4 -30 -10 -60 -14 -30 -3 -73 -10 -95 -15 -91 -20 -202 -32
-325 -35 -66 -1 -93 2 -160 19 -46 12 -76 31 -125 80 -30 29 -57 51 -60 48 -9
-10 -5 -72 5 -72 6 0 10 -9 10 -20 0 -98 128 -196 320 -245 50 -13 84 -26 83
-33 -4 -19 37 -115 60 -141 38 -41 149 -84 256 -99 55 -8 216 -8 251 0 14 4
57 11 95 18 78 13 276 62 375 92 36 11 75 22 87 24 12 2 35 9 50 15 28 11 265
87 293 95 8 2 47 13 85 25 39 11 77 21 85 21 8 1 20 5 26 9 6 5 28 11 50 15
54 8 74 21 75 47 0 12 2 50 5 84 l6 62 -29 -5 c-15 -3 -57 -12 -93 -21 -36 -8
-76 -17 -90 -19 -14 -1 -44 -10 -68 -18 -24 -9 -46 -15 -50 -14 -4 1 -20 -4
-35 -10 -16 -7 -34 -12 -40 -12 -7 0 -39 -10 -72 -21 -33 -12 -76 -23 -95 -26
-19 -3 -39 -8 -45 -13 -18 -13 -417 -128 -500 -145 -16 -3 -41 -8 -55 -11 -31
-6 -115 -22 -155 -29 -36 -6 -146 -17 -195 -19 -19 -1 -48 2 -65 7 -16 4 -37
10 -46 12 -53 12 -151 77 -132 88 4 2 49 8 98 11 50 4 106 11 126 16 20 6 61
12 90 15 30 3 133 26 229 50 96 25 189 47 205 50 17 3 46 12 65 20 19 8 60 21
90 29 30 8 143 40 250 71 107 31 206 59 220 61 14 3 46 11 73 19 26 8 48 14
50 13 1 0 22 5 47 12 55 16 277 20 308 7 27 -12 27 -21 3 -55 -56 -81 -81
-171 -68 -247 10 -60 59 -165 101 -219 54 -68 142 -144 169 -146 15 0 6 38
-15 62 -13 13 -24 33 -25 44 0 10 -9 39 -18 64 -21 54 -25 77 -25 155 -1 78 6
109 35 170 43 89 129 162 212 180 59 12 90 76 59 120 -7 11 -14 25 -14 30 -2
22 -92 101 -133 116 -77 28 -305 23 -464 -11z"/>
<path d="M3364 5545 c-60 -27 -108 -81 -129 -145 -27 -83 -20 -93 82 -125 101
-32 190 -146 211 -271 19 -109 5 -203 -44 -301 -19 -37 -31 -70 -27 -74 24
-24 156 95 207 188 82 146 82 293 -1 396 -30 38 -29 45 10 62 22 10 62 13 132
10 104 -3 177 -16 336 -60 52 -14 119 -33 149 -41 65 -17 201 -58 286 -85 34
-11 75 -22 90 -25 16 -3 43 -9 59 -14 78 -24 222 -62 227 -59 2 0 16 -5 32
-11 16 -6 45 -13 65 -16 20 -3 44 -7 53 -10 10 -3 30 -7 45 -10 28 -4 77 -12
121 -20 12 -2 34 -7 50 -10 43 -10 240 -12 291 -3 25 5 79 18 119 31 66 20 80
28 132 85 32 35 67 83 79 108 22 46 29 125 11 125 -5 0 -10 -4 -10 -8 0 -20
-80 -92 -123 -111 -64 -29 -115 -37 -212 -34 -178 5 -233 12 -405 53 -69 17
-138 33 -153 36 -24 5 -47 11 -149 39 -10 3 -27 7 -37 9 -11 3 -30 10 -43 17
-13 7 -24 11 -26 10 -5 -4 -77 12 -87 19 -10 7 -48 18 -95 27 -14 2 -29 8 -35
14 -5 5 -19 9 -31 9 -12 0 -35 6 -51 14 -15 8 -64 24 -108 36 -44 13 -118 33
-165 46 -93 27 -120 34 -135 37 -5 2 -16 6 -22 10 -7 5 -13 6 -13 3 0 -2 -15
0 -32 5 -18 5 -46 12 -63 15 -16 3 -34 7 -40 8 -5 2 -28 6 -50 11 -41 8 -62
12 -105 21 -14 3 -97 7 -185 9 -150 3 -163 2 -211 -20z"/>
<path d="M3749 5144 c-2 -20 -2 -81 0 -125 1 -16 8 -30 19 -34 13 -5 208 -61
277 -79 6 -2 17 -6 25 -9 21 -8 183 -59 195 -61 15 -3 88 -26 110 -36 26 -10
224 -68 250 -73 11 -2 31 -7 45 -10 80 -21 201 -47 240 -53 25 -3 70 -9 100
-14 100 -14 249 -4 330 22 93 30 200 140 200 206 0 31 -12 28 -70 -16 -106
-80 -231 -85 -535 -21 -77 17 -147 32 -155 34 -8 3 -40 11 -70 19 -72 20 -168
47 -255 74 -38 12 -104 31 -145 43 -41 12 -89 27 -105 35 -17 7 -42 15 -55 18
-14 3 -87 21 -164 41 -76 19 -152 37 -170 39 -17 2 -39 7 -48 11 -13 5 -18 2
-19 -11z"/>
<path d="M2926 5059 c-37 -10 -83 -54 -105 -99 -34 -67 -2 -181 61 -220 18
-10 33 -27 36 -37 2 -10 5 -315 8 -678 2 -363 5 -909 7 -1212 2 -304 3 -553 1
-553 -7 0 -86 83 -134 139 -76 90 -80 95 -118 137 -20 23 -64 72 -97 109 -33
38 -67 76 -75 85 -111 116 -320 453 -320 515 0 8 -5 15 -12 15 -6 0 -9 2 -6 5
3 3 -4 36 -15 73 -15 51 -20 98 -20 197 -1 165 19 255 86 395 52 107 174 301
225 355 41 45 75 95 63 95 -13 0 -77 -57 -140 -124 -53 -56 -161 -195 -161
-207 0 -4 -6 -14 -12 -21 -7 -8 -18 -23 -24 -33 -6 -11 -22 -41 -37 -66 -37
-68 -101 -219 -94 -225 3 -3 -1 -25 -9 -47 -16 -45 -25 -305 -11 -314 4 -2 4
-9 1 -15 -4 -6 -2 -13 3 -17 5 -3 14 -28 20 -56 7 -27 20 -68 29 -90 10 -22
18 -42 19 -45 0 -3 9 -21 20 -40 11 -19 19 -37 20 -40 1 -14 149 -234 194
-288 28 -34 51 -63 51 -66 0 -3 10 -16 23 -28 12 -13 45 -50 72 -81 28 -32 64
-73 80 -90 17 -18 44 -48 60 -67 180 -207 252 -284 272 -293 12 -5 23 -14 23
-19 0 -5 -34 -59 -76 -121 -92 -135 -204 -350 -204 -390 0 -8 -6 -30 -14 -48
-24 -59 -28 -99 -31 -302 -2 -204 2 -242 42 -362 35 -105 129 -303 183 -385
16 -25 39 -62 50 -83 11 -20 24 -37 29 -37 17 0 20 29 5 44 -8 9 -22 32 -30
53 -9 21 -31 70 -49 108 -60 129 -73 165 -105 283 -11 43 -14 59 -26 162 -20
170 8 398 67 528 11 26 23 58 25 71 3 13 16 43 29 67 14 24 37 65 51 92 15 26
37 61 50 79 13 17 24 34 24 38 0 6 13 24 44 57 l19 21 16 -34 c9 -19 36 -63
59 -99 48 -73 144 -263 166 -330 41 -127 51 -193 50 -360 0 -188 -14 -286 -56
-390 -5 -14 -10 -27 -10 -30 -1 -13 -44 -114 -95 -219 -31 -64 -58 -122 -59
-129 -11 -60 105 108 176 254 109 226 124 278 145 509 9 89 5 263 -5 291 -7
16 -14 40 -16 54 -7 38 -34 119 -60 177 -13 29 -26 64 -30 78 -3 14 -9 25 -13
25 -7 0 -34 46 -35 61 -1 3 -25 44 -53 92 -53 86 -92 127 -121 127 -13 0 -12
3 4 19 19 18 25 25 104 120 25 30 56 66 69 80 13 14 40 46 60 71 20 24 43 51
51 60 8 9 42 45 75 81 50 54 131 147 190 221 8 10 19 32 24 50 5 18 10 27 10
21 2 -26 18 -12 31 27 7 22 22 49 32 60 10 11 16 20 13 20 -4 0 11 17 32 38
21 20 46 50 56 65 54 84 113 220 123 283 3 22 9 56 14 76 4 20 7 95 5 165 -1
115 -5 138 -35 228 -45 137 -83 204 -222 391 -74 101 -198 234 -218 234 -6 0
4 -21 24 -47 58 -77 159 -224 181 -262 11 -20 28 -47 38 -61 9 -14 22 -41 28
-60 7 -19 15 -37 19 -40 8 -6 45 -119 56 -170 13 -64 15 -84 15 -193 0 -133
-25 -245 -80 -360 -21 -45 -46 -99 -55 -120 -8 -21 -20 -36 -25 -33 -5 4 -9
-2 -9 -11 1 -10 -13 -39 -30 -64 -22 -32 -29 -52 -25 -69 5 -19 3 -22 -11 -17
-21 8 -38 -9 -171 -168 -51 -61 -91 -107 -135 -155 -14 -15 -38 -43 -54 -61
-60 -70 -161 -184 -166 -189 -3 -3 -18 -21 -34 -40 -26 -31 -28 -32 -22 -10
15 51 17 139 19 1225 1 611 6 1116 10 1123 5 6 4 12 -2 12 -6 0 -8 6 -6 13 2
6 7 32 9 56 4 36 13 52 45 80 85 76 103 153 54 228 -44 69 -139 105 -217 82z
m70 -2840 c3 -6 -3 -21 -15 -32 l-21 -21 0 25 c0 37 20 53 36 28z"/>
<path d="M2185 4872 c-11 -2 -24 -7 -30 -11 -5 -4 -32 -15 -60 -25 -55 -19
-60 -21 -125 -47 -116 -45 -210 -77 -210 -72 0 3 -7 0 -15 -7 -8 -7 -15 -9
-15 -5 0 4 -6 3 -12 -3 -18 -14 -180 -51 -265 -60 -77 -9 -110 -2 -187 37 -13
6 3 -49 18 -65 63 -62 250 -95 386 -68 48 10 49 10 100 24 25 7 50 13 55 15 6
1 17 4 25 7 8 3 37 10 63 17 88 21 351 126 369 148 9 11 7 21 -7 46 -11 18
-18 33 -17 35 14 17 -38 41 -73 34z"/>
<path d="M3712 4843 c-17 -22 -29 -48 -27 -59 2 -10 4 -23 4 -29 2 -11 67 -43
101 -50 12 -2 28 -9 35 -15 10 -9 93 -37 130 -44 6 -2 28 -10 50 -20 22 -9 65
-24 95 -31 30 -8 89 -23 130 -34 106 -28 303 -23 375 8 63 28 95 58 95 89 0
21 -2 23 -15 12 -19 -16 -113 -38 -140 -34 -11 2 -42 6 -70 9 -56 7 -120 21
-150 35 -11 4 -42 14 -70 20 -27 6 -63 17 -80 24 -34 15 -122 44 -145 48 -8 2
-18 7 -21 11 -3 4 -18 10 -34 13 -15 3 -41 12 -58 20 -25 13 -91 39 -158 60
-10 4 -27 -8 -47 -33z"/>
</g>
</svg>
